<?xml version="1.0" encoding="UTF-8"?> <svg xmlns="http://www.w3.org/2000/svg" xmlns:xlink="http://www.w3.org/1999/xlink" width="2906" height="1453" xml:space="preserve" overflow="hidden"><g transform="translate(-192 -421)"><g><path d="M0-4.58333 513.375-4.58333 513.375 446.208 508.792 441.624 648.091 441.624 648.091 450.791 504.208 450.791 504.208 0 508.792 4.58333 0 4.58333ZM643.508 432.458 671.008 446.208 643.508 459.958Z" fill="#00C5D1" fill-rule="nonzero" fill-opacity="1" transform="matrix(1 0 0 -1 1956.5 1122.71)"></path><path d="M1751 1076C1736.64 1076 1725 1122.56 1725 1180 1725 1237.44 1736.64 1284 1751 1284L1360 1284C1345.64 1284 1334 1237.44 1334 1180 1334 1122.56 1345.64 1076 1360 1076Z" fill="#0080A9" fill-rule="evenodd" fill-opacity="1"></path><path d="M1751 1076C1765.36 1076 1777 1122.56 1777 1180 1777 1237.44 1765.36 1284 1751 1284 1736.64 1284 1725 1237.44 1725 1180 1725 1122.56 1736.64 1076 1751 1076Z" fill="#66B3CB" fill-rule="evenodd" fill-opacity="1"></path><text fill="#FFFFFF" fill-opacity="1" font-family="Pathway Extreme,Pathway Extreme_MSFontService,sans-serif" font-style="normal" font-variant="normal" font-weight="400" font-stretch="normal" font-size="48" text-anchor="start" direction="ltr" writing-mode="lr-tb" text-decoration="none" transform="matrix(1 0 0 1 1417.16 1168)">Event Data </text><text fill="#FFFFFF" fill-opacity="1" font-family="Pathway Extreme,Pathway Extreme_MSFontService,sans-serif" font-style="normal" font-variant="normal" font-weight="400" font-stretch="normal" font-size="48" text-anchor="start" direction="ltr" writing-mode="lr-tb" text-decoration="none" transform="matrix(1 0 0 1 1478.46 1225)">Store</text><text fill="#1B2838" fill-opacity="1" font-family="Pathway Extreme,Pathway Extreme_MSFontService,sans-serif" font-style="normal" font-variant="normal" font-weight="700" font-stretch="normal" font-size="37" text-anchor="start" direction="ltr" writing-mode="lr-tb" text-decoration="none" transform="matrix(1 0 0 1 340.511 873)">Sources</text><path d="M197 1034.5C197 1012.69 214.685 995 236.501 995L547.499 995C569.315 995 587 1012.69 587 1034.5L587 1192.5C587 1214.31 569.315 1232 547.499 1232L236.501 1232C214.685 1232 197 1214.31 197 1192.5Z" stroke="#CECEDB" stroke-width="5.72917" stroke-linecap="butt" stroke-linejoin="round" stroke-miterlimit="10" stroke-opacity="1" fill="#F0F6FF" fill-rule="evenodd" fill-opacity="1"></path><text fill="#1B2838" fill-opacity="1" font-family="Pathway Extreme,Pathway Extreme_MSFontService,sans-serif" font-style="normal" font-variant="normal" font-weight="400" font-stretch="normal" font-size="48" text-anchor="start" direction="ltr" writing-mode="lr-tb" text-decoration="none" transform="matrix(1 0 0 1 266.414 1131)">Event Data</text><path d="M229 1063.5C229 1041.69 246.685 1024 268.501 1024L579.499 1024C601.315 1024 619 1041.69 619 1063.5L619 1221.5C619 1243.31 601.315 1261 579.499 1261L268.501 1261C246.685 1261 229 1243.31 229 1221.5Z" stroke="#CECEDB" stroke-width="5.72917" stroke-linecap="butt" stroke-linejoin="round" stroke-miterlimit="10" stroke-opacity="1" fill="#F0F6FF" fill-rule="evenodd" fill-opacity="1"></path><text fill="#1B2838" fill-opacity="1" font-family="Pathway Extreme,Pathway Extreme_MSFontService,sans-serif" font-style="normal" font-variant="normal" font-weight="400" font-stretch="normal" font-size="48" text-anchor="start" direction="ltr" writing-mode="lr-tb" text-decoration="none" transform="matrix(1 0 0 1 298.959 1159)">Event Data</text><path d="M262 1100.5C262 1078.69 279.685 1061 301.501 1061L612.499 1061C634.315 1061 652 1078.69 652 1100.5L652 1258.5C652 1280.31 634.315 1298 612.499 1298L301.501 1298C279.685 1298 262 1280.31 262 1258.5Z" stroke="#CECEDB" stroke-width="5.72917" stroke-linecap="butt" stroke-linejoin="round" stroke-miterlimit="10" stroke-opacity="1" fill="#F0F6FF" fill-rule="evenodd" fill-opacity="1"></path><text fill="#1B2838" fill-opacity="1" font-family="Pathway Extreme,Pathway Extreme_MSFontService,sans-serif" font-style="normal" font-variant="normal" font-weight="400" font-stretch="normal" font-size="48" text-anchor="start" direction="ltr" writing-mode="lr-tb" text-decoration="none" transform="matrix(1 0 0 1 331.504 1197)">Event Data</text><path d="M765 1034.5C765 1012.69 782.685 995 804.501 995L1115.5 995C1137.31 995 1155 1012.69 1155 1034.5L1155 1192.5C1155 1214.31 1137.31 1232 1115.5 1232L804.501 1232C782.685 1232 765 1214.31 765 1192.5Z" stroke="#CECEDB" stroke-width="5.72917" stroke-linecap="butt" stroke-linejoin="round" stroke-miterlimit="10" stroke-opacity="1" fill="#F0F6FF" fill-rule="evenodd" fill-opacity="1"></path><text fill="#1B2838" fill-opacity="1" font-family="Pathway Extreme,Pathway Extreme_MSFontService,sans-serif" font-style="normal" font-variant="normal" font-weight="400" font-stretch="normal" font-size="48" text-anchor="start" direction="ltr" writing-mode="lr-tb" text-decoration="none" transform="matrix(1 0 0 1 834.107 1131)">Event Data</text><path d="M797 1063.5C797 1041.69 814.685 1024 836.501 1024L1147.5 1024C1169.31 1024 1187 1041.69 1187 1063.5L1187 1221.5C1187 1243.31 1169.31 1261 1147.5 1261L836.501 1261C814.685 1261 797 1243.31 797 1221.5Z" stroke="#CECEDB" stroke-width="5.72917" stroke-linecap="butt" stroke-linejoin="round" stroke-miterlimit="10" stroke-opacity="1" fill="#F0F6FF" fill-rule="evenodd" fill-opacity="1"></path><text fill="#1B2838" fill-opacity="1" font-family="Pathway Extreme,Pathway Extreme_MSFontService,sans-serif" font-style="normal" font-variant="normal" font-weight="400" font-stretch="normal" font-size="48" text-anchor="start" direction="ltr" writing-mode="lr-tb" text-decoration="none" transform="matrix(1 0 0 1 866.652 1159)">Event Data</text><path d="M830 1100.5C830 1078.69 847.685 1061 869.501 1061L1180.5 1061C1202.31 1061 1220 1078.69 1220 1100.5L1220 1258.5C1220 1280.31 1202.31 1298 1180.5 1298L869.501 1298C847.685 1298 830 1280.31 830 1258.5Z" stroke="#CECEDB" stroke-width="5.72917" stroke-linecap="butt" stroke-linejoin="round" stroke-miterlimit="10" stroke-opacity="1" fill="#F0F6FF" fill-rule="evenodd" fill-opacity="1"></path><text fill="#1B2838" fill-opacity="1" font-family="Pathway Extreme,Pathway Extreme_MSFontService,sans-serif" font-style="normal" font-variant="normal" font-weight="400" font-stretch="normal" font-size="48" text-anchor="start" direction="ltr" writing-mode="lr-tb" text-decoration="none" transform="matrix(1 0 0 1 912.947 1197)">Publisher</text><path d="M1891 1034.5C1891 1012.69 1908.69 995 1930.5 995L2241.5 995C2263.32 995 2281 1012.69 2281 1034.5L2281 1192.5C2281 1214.31 2263.32 1232 2241.5 1232L1930.5 1232C1908.69 1232 1891 1214.31 1891 1192.5Z" stroke="#CECEDB" stroke-width="5.72917" stroke-linecap="butt" stroke-linejoin="round" stroke-miterlimit="10" stroke-opacity="1" fill="#F0F6FF" fill-rule="evenodd" fill-opacity="1"></path><text fill="#1B2838" fill-opacity="1" font-family="Pathway Extreme,Pathway Extreme_MSFontService,sans-serif" font-style="normal" font-variant="normal" font-weight="400" font-stretch="normal" font-size="48" text-anchor="start" direction="ltr" writing-mode="lr-tb" text-decoration="none" transform="matrix(1 0 0 1 1960.92 1131)">Event Data</text><path d="M1924 1063.5C1924 1041.69 1941.69 1024 1963.5 1024L2274.5 1024C2296.32 1024 2314 1041.69 2314 1063.5L2314 1221.5C2314 1243.31 2296.32 1261 2274.5 1261L1963.5 1261C1941.69 1261 1924 1243.31 1924 1221.5Z" stroke="#CECEDB" stroke-width="5.72917" stroke-linecap="butt" stroke-linejoin="round" stroke-miterlimit="10" stroke-opacity="1" fill="#F0F6FF" fill-rule="evenodd" fill-opacity="1"></path><text fill="#1B2838" fill-opacity="1" font-family="Pathway Extreme,Pathway Extreme_MSFontService,sans-serif" font-style="normal" font-variant="normal" font-weight="400" font-stretch="normal" font-size="48" text-anchor="start" direction="ltr" writing-mode="lr-tb" text-decoration="none" transform="matrix(1 0 0 1 1993.47 1159)">Event Data</text><path d="M1956 1100.5C1956 1078.69 1973.68 1061 1995.5 1061L2307.5 1061C2329.31 1061 2347 1078.69 2347 1100.5L2347 1258.5C2347 1280.31 2329.31 1298 2307.5 1298L1995.5 1298C1973.68 1298 1956 1280.31 1956 1258.5Z" stroke="#CECEDB" stroke-width="5.72917" stroke-linecap="butt" stroke-linejoin="round" stroke-miterlimit="10" stroke-opacity="1" fill="#F0F6FF" fill-rule="evenodd" fill-opacity="1"></path><text fill="#1B2838" fill-opacity="1" font-family="Pathway Extreme,Pathway Extreme_MSFontService,sans-serif" font-style="normal" font-variant="normal" font-weight="400" font-stretch="normal" font-size="48" text-anchor="start" direction="ltr" writing-mode="lr-tb" text-decoration="none" transform="matrix(1 0 0 1 2020.57 1197)">Subscriber</text><path d="M2627 580.125C2627 597.867 2715.42 612.25 2824.5 612.25 2933.58 612.25 3022 597.867 3022 580.125L3022 772.875C3022 790.617 2933.58 805 2824.5 805 2715.42 805 2627 790.617 2627 772.875Z" fill="#0080A9" fill-rule="evenodd" fill-opacity="1"></path><path d="M2627 580.125C2627 562.383 2715.42 548 2824.5 548 2933.58 548 3022 562.383 3022 580.125 3022 597.867 2933.58 612.25 2824.5 612.25 2715.42 612.25 2627 597.867 2627 580.125Z" fill="#66B3CB" fill-rule="evenodd" fill-opacity="1"></path><text fill="#FFFFFF" fill-opacity="1" font-family="Pathway Extreme,Pathway Extreme_MSFontService,sans-serif" font-style="normal" font-variant="normal" font-weight="400" font-stretch="normal" font-size="48" text-anchor="start" direction="ltr" writing-mode="lr-tb" text-decoration="none" transform="matrix(1 0 0 1 2713.12 709)">Database</text><path d="M1956 1505.34C1956 1483.61 1973.61 1466 1995.34 1466L2307.66 1466C2329.39 1466 2347 1483.61 2347 1505.34L2347 1662.67C2347 1684.4 2329.39 1702.01 2307.66 1702.01L1995.34 1702.01C1973.61 1702.01 1956 1684.4 1956 1662.67Z" stroke="#CECEDB" stroke-width="5.72917" stroke-linecap="butt" stroke-linejoin="round" stroke-miterlimit="10" stroke-opacity="1" fill="#FFFFFF" fill-rule="evenodd" fill-opacity="1"></path><text fill="#1B2838" fill-opacity="1" font-family="Pathway Extreme,Pathway Extreme_MSFontService,sans-serif" font-style="normal" font-variant="normal" font-weight="400" font-stretch="normal" font-size="48" text-anchor="start" direction="ltr" writing-mode="lr-tb" text-decoration="none" transform="matrix(1 0 0 1 2020.57 1572)">Subscriber </text><text fill="#1B2838" fill-opacity="1" font-family="Pathway Extreme,Pathway Extreme_MSFontService,sans-serif" font-style="normal" font-variant="normal" font-weight="400" font-stretch="normal" font-size="48" text-anchor="start" direction="ltr" writing-mode="lr-tb" text-decoration="none" transform="matrix(1 0 0 1 1987.91 1629)">and Publisher</text><path d="M2638 1225.33C2638 1203.61 2655.61 1186 2677.33 1186L2988.67 1186C3010.39 1186 3028 1203.61 3028 1225.33L3028 1382.67C3028 1404.39 3010.39 1422 2988.67 1422L2677.33 1422C2655.61 1422 2638 1404.39 2638 1382.67Z" stroke="#CECEDB" stroke-width="5.72917" stroke-linecap="butt" stroke-linejoin="round" stroke-miterlimit="10" stroke-opacity="1" fill="#FFFFFF" fill-rule="evenodd" fill-opacity="1"></path><text fill="#1B2838" fill-opacity="1" font-family="Pathway Extreme,Pathway Extreme_MSFontService,sans-serif" font-style="normal" font-variant="normal" font-weight="400" font-stretch="normal" font-size="48" text-anchor="start" direction="ltr" writing-mode="lr-tb" text-decoration="none" transform="matrix(1 0 0 1 2772.47 1321)">Apps</text><path d="M2632 916.334C2632 894.61 2649.61 877 2671.33 877L2982.67 877C3004.39 877 3022 894.61 3022 916.334L3022 1073.67C3022 1095.39 3004.39 1113 2982.67 1113L2671.33 1113C2649.61 1113 2632 1095.39 2632 1073.67Z" stroke="#CECEDB" stroke-width="5.72917" stroke-linecap="butt" stroke-linejoin="round" stroke-miterlimit="10" stroke-opacity="1" fill="#FFFFFF" fill-rule="evenodd" fill-opacity="1"></path><text fill="#1B2838" fill-opacity="1" font-family="Pathway Extreme,Pathway Extreme_MSFontService,sans-serif" font-style="normal" font-variant="normal" font-weight="400" font-stretch="normal" font-size="48" text-anchor="start" direction="ltr" writing-mode="lr-tb" text-decoration="none" transform="matrix(1 0 0 1 2692.26 1012)">File System</text><path d="M22.9167-4.58329 177.633-4.58297 177.633 4.58369 22.9166 4.58338ZM27.5 13.7501 0 0 27.5-13.7499Z" fill="#00C5D1" fill-rule="nonzero" fill-opacity="1" transform="matrix(-1 0 0 1 830.133 1115.5)"></path><path d="M22.9167-4.58329 177.633-4.58297 177.633 4.58369 22.9166 4.58338ZM27.5 13.7501 0 0 27.5-13.7499Z" fill="#00C5D1" fill-rule="nonzero" fill-opacity="1" transform="matrix(-1 0 0 1 830.133 1232.5)"></path><path d="M22.9167-4.58329 177.633-4.58297 177.633 4.58369 22.9166 4.58338ZM27.5 13.7501 0 0 27.5-13.7499Z" fill="#00C5D1" fill-rule="nonzero" fill-opacity="1" transform="matrix(-1 0 0 1 830.133 1175.5)"></path><path d="M1311.61 1185.08 1220.5 1185.08 1220.5 1175.92 1311.61 1175.92ZM1307.03 1166.75 1334.53 1180.5 1307.03 1194.25Z" fill="#00C5D1" fill-rule="nonzero" fill-opacity="1"></path><path d="M22.9167-4.58329 179.003-4.58297 179.003 4.58369 22.9167 4.58338ZM27.5 13.7501 0 0 27.5-13.7499Z" fill="#00C5D1" fill-rule="nonzero" fill-opacity="1" transform="matrix(-1 0 0 1 1956.5 1180.5)"></path><path d="M0 0 76.5897 0.000360892" stroke="#00C5D1" stroke-width="9.16667" stroke-linecap="square" stroke-linejoin="round" stroke-miterlimit="10" stroke-opacity="1" fill="none" fill-rule="evenodd" transform="matrix(-1 0 0 1 1846.09 1238.5)"></path><path d="M0 0 0.000360892 346.369" stroke="#00C5D1" stroke-width="9.16667" stroke-linecap="square" stroke-linejoin="round" stroke-miterlimit="10" stroke-opacity="1" fill="none" fill-rule="evenodd" transform="matrix(1 0 0 -1 1846.5 1584.87)"></path><path d="M22.9167-4.58326 115.311-4.58296 115.311 4.58371 22.9166 4.58341ZM27.5 13.7501 0 0 27.5-13.7499Z" fill="#00C5D1" fill-rule="nonzero" fill-opacity="1" transform="matrix(-1 0 0 1 1957.23 1584.5)"></path><path d="M1957.23 1647.63 1247.67 1647.63 1247.67 1233.92 1311.58 1233.92 1311.58 1243.08 1252.25 1243.08 1256.83 1238.5 1256.83 1643.05 1252.25 1638.46 1957.23 1638.46ZM1307 1224.75 1334.5 1238.5 1307 1252.25Z" fill="#00C5D1" fill-rule="nonzero" fill-opacity="1"></path><text fill="#1B2838" fill-opacity="1" font-family="Pathway Extreme,Pathway Extreme_MSFontService,sans-serif" font-style="normal" font-variant="normal" font-weight="400" font-stretch="normal" font-size="303" text-anchor="start" direction="ltr" writing-mode="lr-tb" text-decoration="none" transform="matrix(1 0 0 1 2750.15 1615)">…</text><path d="M2346.5 1246.92 2470.83 1246.92 2470.83 1603.94 2466.25 1599.35 2714.21 1599.35 2714.21 1608.52 2461.67 1608.52 2461.67 1251.5 2466.25 1256.08 2346.5 1256.08ZM2709.63 1590.19 2737.13 1603.94 2709.63 1617.69Z" fill="#00C5D1" fill-rule="nonzero" fill-opacity="1"></path><path d="M2346.5 1202.92 2512.3 1202.92 2512.3 1326.53 2507.72 1321.95 2612.9 1321.95 2612.9 1331.11 2503.14 1331.11 2503.14 1207.5 2507.72 1212.08 2346.5 1212.08ZM2608.32 1312.78 2635.82 1326.53 2608.32 1340.28Z" fill="#00C5D1" fill-rule="nonzero" fill-opacity="1"></path><path d="M0-4.58333 166.655-4.58333 166.655 169.843 162.071 165.259 263.004 165.259 263.004 174.426 157.488 174.426 157.488 0 162.071 4.58333 0 4.58333ZM258.421 156.093 285.921 169.843 258.421 183.593Z" fill="#00C5D1" fill-rule="nonzero" fill-opacity="1" transform="matrix(1 0 0 -1 2346.5 1165.34)"></path><text fill="#1B2838" fill-opacity="1" font-family="Pathway Extreme,Pathway Extreme_MSFontService,sans-serif" font-style="normal" font-variant="normal" font-weight="700" font-stretch="normal" font-size="37" text-anchor="start" direction="ltr" writing-mode="lr-tb" text-decoration="none" transform="matrix(1 0 0 1 2788.29 473)">Sinks</text></g></g></svg> 